<svg aria-hidden="true" width="24" height="24" viewBox="0 0 24 24" fill="none" xmlns="http://www.w3.org/2000/svg" class="size-10">
<path d="M2.58574 15.2154L5.05073 8.7846H6.40602L8.86192 15.2154H7.63397L7.20646 14.0238H4.2412L3.80459 15.2154H2.58574ZM4.60503 12.996H6.83353L5.72383 9.93068L4.60503 12.996Z" fill="currentColor"/>
<path d="M8.86192 15.2154L11.3269 8.7846H12.6822L15.1381 15.2154H13.9102L13.4826 14.0238H10.5174L10.0808 15.2154H8.86192ZM10.8812 12.996H13.1097L12 9.93068L10.8812 12.996Z" fill="currentColor"/>
<path d="M15.1381 15.2154L17.6031 8.7846H18.9584L21.4143 15.2154H20.1863L19.7588 14.0238H16.7935L16.3569 15.2154H15.1381ZM17.1574 12.996H19.3859L18.2762 9.93068L17.1574 12.996Z" fill="currentColor"/>
</svg>
