<svg aria-hidden="true" width="174" height="27" viewBox="0 0 174 27" fill="none" xmlns="http://www.w3.org/2000/svg">
    <path d="M18.62 26.1473L7.24793e-05 26.1473L7.47651e-05 0.000443544L18.62 0.000445172C18.6387 0.000366972 18.6575 8.65935e-05 18.6763 8.65951e-05C18.6951 8.65967e-05 18.7138 0.000366979 18.7326 0.000445182L18.9315 0.000445199L18.9315 0.00283701C26.0341 0.138853 31.75 5.93878 31.75 13.0739C31.75 20.2091 26.0341 26.009 18.9315 26.145L18.9315 26.1473L18.7326 26.1473C18.7138 26.1474 18.6951 26.1476 18.6763 26.1476C18.6575 26.1476 18.6387 26.1474 18.62 26.1473Z" fill="#034D53"/>
    <circle cx="18.6755" cy="13.0738" r="10.4587" fill="#9AB6B5"/>
    <path d="M49.768 19.0738L54.736 6.32978H57.616L62.53 19.0738H59.758L58.966 16.8958H53.332L52.54 19.0738H49.768ZM54.16 14.5738H58.156L56.176 9.06578L54.16 14.5738ZM65.2829 19.0738V9.73178H62.7809V7.78778C63.2729 7.77578 63.7169 7.73378 64.1129 7.66178C64.5089 7.57778 64.8629 7.43378 65.1749 7.22978C65.4869 7.01378 65.7569 6.71378 65.9849 6.32978H67.8569V19.0738H65.2829ZM72.2965 19.0738V9.73178H69.7945V7.78778C70.2865 7.77578 70.7305 7.73378 71.1265 7.66178C71.5225 7.57778 71.8765 7.43378 72.1885 7.22978C72.5005 7.01378 72.7705 6.71378 72.9985 6.32978H74.8705V19.0738H72.2965ZM81.7582 23.4478C81.0262 23.4478 80.3122 23.3518 79.6162 23.1598C78.9202 22.9678 78.2662 22.6438 77.6542 22.1878L78.5002 20.1718C78.8842 20.4598 79.3222 20.6878 79.8142 20.8558C80.3062 21.0358 80.8522 21.1258 81.4522 21.1258C82.3762 21.1258 83.0602 20.9098 83.5042 20.4778C83.9602 20.0458 84.1882 19.4218 84.1882 18.6058V18.1018C83.9842 18.3778 83.7262 18.5998 83.4142 18.7678C83.1142 18.9238 82.7902 19.0378 82.4422 19.1098C82.0942 19.1818 81.7462 19.2178 81.3982 19.2178C80.4862 19.2178 79.7542 19.0258 79.2022 18.6418C78.6502 18.2578 78.2482 17.7358 77.9962 17.0758C77.7562 16.4038 77.6362 15.6418 77.6362 14.7898V9.58778H80.1562V14.2678C80.1562 14.5798 80.1742 14.8918 80.2102 15.2038C80.2462 15.5158 80.3302 15.8038 80.4622 16.0678C80.5942 16.3318 80.7922 16.5478 81.0562 16.7158C81.3202 16.8718 81.6742 16.9498 82.1182 16.9498C82.6942 16.9498 83.1262 16.8118 83.4142 16.5358C83.7022 16.2478 83.8942 15.8878 83.9902 15.4558C84.0982 15.0238 84.1522 14.5738 84.1522 14.1058V9.58778H86.6722V17.7058C86.6722 18.5698 86.5882 19.3558 86.4202 20.0638C86.2642 20.7718 85.9942 21.3778 85.6102 21.8818C85.2382 22.3858 84.7342 22.7698 84.0982 23.0338C83.4742 23.3098 82.6942 23.4478 81.7582 23.4478ZM89.016 19.0738V6.32978H98.196V8.72378H91.59V11.6038H97.26V13.9078H91.59V16.6978H98.196V19.0738H89.016ZM103.544 19.1998C103.1 19.1998 102.644 19.1518 102.176 19.0558C101.708 18.9598 101.276 18.7978 100.88 18.5698C100.484 18.3298 100.148 18.0118 99.8717 17.6158C99.5957 17.2078 99.4157 16.7038 99.3317 16.1038H101.888C101.96 16.3198 102.086 16.5058 102.266 16.6618C102.458 16.8178 102.674 16.9318 102.914 17.0038C103.166 17.0758 103.418 17.1118 103.67 17.1118C103.838 17.1118 104.006 17.0998 104.174 17.0758C104.342 17.0518 104.498 17.0038 104.642 16.9318C104.786 16.8598 104.9 16.7698 104.984 16.6618C105.068 16.5418 105.11 16.3918 105.11 16.2118C105.11 16.0198 105.05 15.8698 104.93 15.7618C104.81 15.6538 104.642 15.5698 104.426 15.5098C104.21 15.4378 103.964 15.3718 103.688 15.3118C103.196 15.2038 102.668 15.0838 102.104 14.9518C101.54 14.8198 101.054 14.6278 100.646 14.3758C100.478 14.2558 100.328 14.1238 100.196 13.9798C100.064 13.8358 99.9557 13.6738 99.8717 13.4938C99.7877 13.3138 99.7217 13.1278 99.6737 12.9358C99.6257 12.7318 99.6017 12.5158 99.6017 12.2878C99.6017 11.7718 99.7097 11.3338 99.9257 10.9738C100.154 10.6018 100.454 10.3018 100.826 10.0738C101.198 9.84578 101.612 9.68378 102.068 9.58778C102.524 9.47978 102.992 9.42578 103.472 9.42578C104.12 9.42578 104.72 9.53378 105.272 9.74978C105.824 9.95378 106.28 10.2778 106.64 10.7218C107 11.1538 107.222 11.7178 107.306 12.4138H104.894C104.846 12.1498 104.684 11.9398 104.408 11.7838C104.132 11.6158 103.79 11.5318 103.382 11.5318C103.238 11.5318 103.082 11.5438 102.914 11.5678C102.758 11.5918 102.614 11.6338 102.482 11.6938C102.35 11.7538 102.242 11.8378 102.158 11.9458C102.074 12.0418 102.032 12.1738 102.032 12.3418C102.032 12.4738 102.068 12.5938 102.14 12.7018C102.224 12.8098 102.338 12.8998 102.482 12.9718C102.638 13.0438 102.824 13.1098 103.04 13.1698C103.448 13.2658 103.856 13.3558 104.264 13.4398C104.684 13.5118 105.056 13.5898 105.38 13.6738C105.776 13.7578 106.136 13.8958 106.46 14.0878C106.796 14.2798 107.066 14.5438 107.27 14.8798C107.486 15.2038 107.594 15.6298 107.594 16.1578C107.594 16.7578 107.474 17.2558 107.234 17.6518C106.994 18.0358 106.67 18.3418 106.262 18.5698C105.866 18.7978 105.428 18.9598 104.948 19.0558C104.48 19.1518 104.012 19.1998 103.544 19.1998ZM112.772 19.1998C112.328 19.1998 111.872 19.1518 111.404 19.0558C110.936 18.9598 110.504 18.7978 110.108 18.5698C109.712 18.3298 109.376 18.0118 109.1 17.6158C108.824 17.2078 108.644 16.7038 108.56 16.1038H111.116C111.188 16.3198 111.314 16.5058 111.494 16.6618C111.686 16.8178 111.902 16.9318 112.142 17.0038C112.394 17.0758 112.646 17.1118 112.898 17.1118C113.066 17.1118 113.234 17.0998 113.402 17.0758C113.57 17.0518 113.726 17.0038 113.87 16.9318C114.014 16.8598 114.128 16.7698 114.212 16.6618C114.296 16.5418 114.338 16.3918 114.338 16.2118C114.338 16.0198 114.278 15.8698 114.158 15.7618C114.038 15.6538 113.87 15.5698 113.654 15.5098C113.438 15.4378 113.192 15.3718 112.916 15.3118C112.424 15.2038 111.896 15.0838 111.332 14.9518C110.768 14.8198 110.282 14.6278 109.874 14.3758C109.706 14.2558 109.556 14.1238 109.424 13.9798C109.292 13.8358 109.184 13.6738 109.1 13.4938C109.016 13.3138 108.95 13.1278 108.902 12.9358C108.854 12.7318 108.83 12.5158 108.83 12.2878C108.83 11.7718 108.938 11.3338 109.154 10.9738C109.382 10.6018 109.682 10.3018 110.054 10.0738C110.426 9.84578 110.84 9.68378 111.296 9.58778C111.752 9.47978 112.22 9.42578 112.7 9.42578C113.348 9.42578 113.948 9.53378 114.5 9.74978C115.052 9.95378 115.508 10.2778 115.868 10.7218C116.228 11.1538 116.45 11.7178 116.534 12.4138H114.122C114.074 12.1498 113.912 11.9398 113.636 11.7838C113.36 11.6158 113.018 11.5318 112.61 11.5318C112.466 11.5318 112.31 11.5438 112.142 11.5678C111.986 11.5918 111.842 11.6338 111.71 11.6938C111.578 11.7538 111.47 11.8378 111.386 11.9458C111.302 12.0418 111.26 12.1738 111.26 12.3418C111.26 12.4738 111.296 12.5938 111.368 12.7018C111.452 12.8098 111.566 12.8998 111.71 12.9718C111.866 13.0438 112.052 13.1098 112.268 13.1698C112.676 13.2658 113.084 13.3558 113.492 13.4398C113.912 13.5118 114.284 13.5898 114.608 13.6738C115.004 13.7578 115.364 13.8958 115.688 14.0878C116.024 14.2798 116.294 14.5438 116.498 14.8798C116.714 15.2038 116.822 15.6298 116.822 16.1578C116.822 16.7578 116.702 17.2558 116.462 17.6518C116.222 18.0358 115.898 18.3418 115.49 18.5698C115.094 18.7978 114.656 18.9598 114.176 19.0558C113.708 19.1518 113.24 19.1998 112.772 19.1998ZM122.631 19.1998C121.635 19.1998 120.789 19.0018 120.093 18.6058C119.397 18.2098 118.863 17.6518 118.491 16.9318C118.119 16.1998 117.933 15.3478 117.933 14.3758C117.933 13.3918 118.125 12.5338 118.509 11.8018C118.893 11.0578 119.433 10.4758 120.129 10.0558C120.837 9.63578 121.671 9.42578 122.631 9.42578C123.351 9.42578 123.981 9.54578 124.521 9.78578C125.073 10.0258 125.535 10.3618 125.907 10.7938C126.291 11.2258 126.573 11.7298 126.753 12.3058C126.945 12.8698 127.035 13.4818 127.023 14.1418C127.023 14.3098 127.017 14.4718 127.005 14.6278C126.993 14.7838 126.969 14.9398 126.933 15.0958H120.435C120.471 15.4558 120.573 15.7858 120.741 16.0858C120.909 16.3858 121.143 16.6258 121.443 16.8058C121.755 16.9738 122.139 17.0578 122.595 17.0578C122.895 17.0578 123.171 17.0278 123.423 16.9678C123.675 16.8958 123.891 16.7878 124.071 16.6438C124.251 16.4998 124.377 16.3318 124.449 16.1398H126.933C126.777 16.8478 126.483 17.4298 126.051 17.8858C125.631 18.3418 125.121 18.6778 124.521 18.8938C123.921 19.0978 123.291 19.1998 122.631 19.1998ZM120.489 13.3318H124.611C124.599 13.0078 124.515 12.7078 124.359 12.4318C124.215 12.1438 123.993 11.9158 123.693 11.7478C123.405 11.5678 123.033 11.4778 122.577 11.4778C122.121 11.4778 121.737 11.5678 121.425 11.7478C121.125 11.9278 120.897 12.1618 120.741 12.4498C120.597 12.7258 120.513 13.0198 120.489 13.3318ZM128.646 19.0738V9.58778H131.004L131.13 10.6858C131.394 10.3618 131.694 10.1098 132.03 9.92978C132.378 9.73778 132.726 9.60578 133.074 9.53378C133.434 9.46178 133.758 9.42578 134.046 9.42578C134.958 9.42578 135.666 9.62378 136.17 10.0198C136.686 10.4158 137.052 10.9498 137.268 11.6218C137.496 12.2818 137.61 13.0198 137.61 13.8358V19.0738H135.09V14.1598C135.09 13.8718 135.066 13.5838 135.018 13.2958C134.97 13.0078 134.88 12.7438 134.748 12.5038C134.628 12.2638 134.454 12.0718 134.226 11.9278C133.998 11.7838 133.698 11.7118 133.326 11.7118C132.846 11.7118 132.444 11.8318 132.12 12.0718C131.796 12.3118 131.556 12.6358 131.4 13.0438C131.244 13.4518 131.166 13.9018 131.166 14.3938V19.0738H128.646ZM143.847 19.0738C143.055 19.0738 142.389 18.9778 141.849 18.7858C141.321 18.5938 140.919 18.2698 140.643 17.8138C140.379 17.3458 140.247 16.7098 140.247 15.9058V11.8378H138.843V9.58778H140.247V7.04978H142.767V9.58778H144.837V11.8378H142.767V15.5458C142.767 15.9418 142.839 16.2538 142.983 16.4818C143.127 16.7098 143.451 16.8238 143.955 16.8238H144.747V19.0738H143.847ZM146.136 19.0738V9.58778H148.656V19.0738H146.136ZM147.396 8.63378C146.928 8.63378 146.55 8.49578 146.262 8.21978C145.974 7.93178 145.83 7.56578 145.83 7.12178C145.83 6.65378 145.98 6.27578 146.28 5.98778C146.58 5.69978 146.958 5.55578 147.414 5.55578C147.834 5.55578 148.194 5.69978 148.494 5.98778C148.806 6.26378 148.962 6.63578 148.962 7.10378C148.962 7.55978 148.812 7.93178 148.512 8.21978C148.224 8.49578 147.852 8.63378 147.396 8.63378ZM153.66 19.1998C153.228 19.1998 152.808 19.1458 152.4 19.0378C152.004 18.9178 151.65 18.7378 151.338 18.4978C151.026 18.2578 150.78 17.9578 150.6 17.5978C150.42 17.2378 150.33 16.8178 150.33 16.3378C150.33 15.6898 150.462 15.1738 150.726 14.7898C150.99 14.3938 151.344 14.0938 151.788 13.8898C152.232 13.6858 152.742 13.5478 153.318 13.4758C153.906 13.4038 154.512 13.3678 155.136 13.3678H156.504C156.504 13.0198 156.438 12.7138 156.306 12.4498C156.186 12.1738 156 11.9638 155.748 11.8198C155.496 11.6638 155.172 11.5858 154.776 11.5858C154.524 11.5858 154.278 11.6218 154.038 11.6938C153.81 11.7538 153.618 11.8438 153.462 11.9638C153.306 12.0838 153.204 12.2398 153.156 12.4318H150.6C150.672 11.9038 150.84 11.4538 151.104 11.0818C151.368 10.6978 151.698 10.3858 152.094 10.1458C152.49 9.90578 152.922 9.73178 153.39 9.62378C153.87 9.50378 154.362 9.44378 154.866 9.44378C156.246 9.44378 157.266 9.83978 157.926 10.6318C158.586 11.4118 158.916 12.5218 158.916 13.9618V19.0738H156.648L156.612 17.8498C156.312 18.2698 155.97 18.5758 155.586 18.7678C155.214 18.9598 154.854 19.0798 154.506 19.1278C154.158 19.1758 153.876 19.1998 153.66 19.1998ZM154.236 17.2018C154.656 17.2018 155.04 17.1178 155.388 16.9498C155.736 16.7818 156.012 16.5538 156.216 16.2658C156.42 15.9778 156.522 15.6538 156.522 15.2938V15.0598H154.794C154.542 15.0598 154.296 15.0718 154.056 15.0958C153.828 15.1198 153.618 15.1678 153.426 15.2398C153.246 15.2998 153.102 15.4018 152.994 15.5458C152.886 15.6898 152.832 15.8818 152.832 16.1218C152.832 16.3618 152.892 16.5658 153.012 16.7338C153.144 16.8898 153.318 17.0098 153.534 17.0938C153.75 17.1658 153.984 17.2018 154.236 17.2018ZM160.885 19.0738V6.32978H163.405V19.0738H160.885ZM169.11 19.1998C168.666 19.1998 168.21 19.1518 167.742 19.0558C167.274 18.9598 166.842 18.7978 166.446 18.5698C166.05 18.3298 165.714 18.0118 165.438 17.6158C165.162 17.2078 164.982 16.7038 164.898 16.1038H167.454C167.526 16.3198 167.652 16.5058 167.832 16.6618C168.024 16.8178 168.24 16.9318 168.48 17.0038C168.732 17.0758 168.984 17.1118 169.236 17.1118C169.404 17.1118 169.572 17.0998 169.74 17.0758C169.908 17.0518 170.064 17.0038 170.208 16.9318C170.352 16.8598 170.466 16.7698 170.55 16.6618C170.634 16.5418 170.676 16.3918 170.676 16.2118C170.676 16.0198 170.616 15.8698 170.496 15.7618C170.376 15.6538 170.208 15.5698 169.992 15.5098C169.776 15.4378 169.53 15.3718 169.254 15.3118C168.762 15.2038 168.234 15.0838 167.67 14.9518C167.106 14.8198 166.62 14.6278 166.212 14.3758C166.044 14.2558 165.894 14.1238 165.762 13.9798C165.63 13.8358 165.522 13.6738 165.438 13.4938C165.354 13.3138 165.288 13.1278 165.24 12.9358C165.192 12.7318 165.168 12.5158 165.168 12.2878C165.168 11.7718 165.276 11.3338 165.492 10.9738C165.72 10.6018 166.02 10.3018 166.392 10.0738C166.764 9.84578 167.178 9.68378 167.634 9.58778C168.09 9.47978 168.558 9.42578 169.038 9.42578C169.686 9.42578 170.286 9.53378 170.838 9.74978C171.39 9.95378 171.846 10.2778 172.206 10.7218C172.566 11.1538 172.788 11.7178 172.872 12.4138H170.46C170.412 12.1498 170.25 11.9398 169.974 11.7838C169.698 11.6158 169.356 11.5318 168.948 11.5318C168.804 11.5318 168.648 11.5438 168.48 11.5678C168.324 11.5918 168.18 11.6338 168.048 11.6938C167.916 11.7538 167.808 11.8378 167.724 11.9458C167.64 12.0418 167.598 12.1738 167.598 12.3418C167.598 12.4738 167.634 12.5938 167.706 12.7018C167.79 12.8098 167.904 12.8998 168.048 12.9718C168.204 13.0438 168.39 13.1098 168.606 13.1698C169.014 13.2658 169.422 13.3558 169.83 13.4398C170.25 13.5118 170.622 13.5898 170.946 13.6738C171.342 13.7578 171.702 13.8958 172.026 14.0878C172.362 14.2798 172.632 14.5438 172.836 14.8798C173.052 15.2038 173.16 15.6298 173.16 16.1578C173.16 16.7578 173.04 17.2558 172.8 17.6518C172.56 18.0358 172.236 18.3418 171.828 18.5698C171.432 18.7978 170.994 18.9598 170.514 19.0558C170.046 19.1518 169.578 19.1998 169.11 19.1998Z" fill="#1A1A1A"/>
</svg>
