<svg aria-hidden="true" width="32" height="27" viewBox="0 0 32 27" fill="none" xmlns="http://www.w3.org/2000/svg">
    <path d="M18.62 26.1473L7.24793e-05 26.1473L7.47651e-05 0.000443544L18.62 0.000445172C18.6387 0.000366972 18.6575 8.65935e-05 18.6763 8.65951e-05C18.6951 8.65967e-05 18.7138 0.000366979 18.7326 0.000445182L18.9315 0.000445199L18.9315 0.00283701C26.0341 0.138853 31.75 5.93878 31.75 13.0739C31.75 20.2091 26.0341 26.009 18.9315 26.145L18.9315 26.1473L18.7326 26.1473C18.7138 26.1474 18.6951 26.1476 18.6763 26.1476C18.6575 26.1476 18.6387 26.1474 18.62 26.1473Z" fill="#034D53"/>
    <circle cx="18.6755" cy="13.0738" r="10.4587" fill="#9AB6B5"/>
</svg>
