<svg aria-hidden="hidden" width="320" height="320" viewBox="0 0 320 320" fill="none" xmlns="http://www.w3.org/2000/svg">
<rect x="319.999" y="319.999" width="319.999" height="319.999" transform="rotate(-180 319.999 319.999)" fill="#CDD9D5"/>
<path d="M160.482 47.9992L319.999 47.9992L319.999 272L160.482 272C160.321 272.001 160.16 272.003 159.999 272.003C159.839 272.003 159.678 272.001 159.517 272L157.813 272L157.813 271.979C96.9644 270.814 47.9968 221.126 47.9966 159.999C47.9968 98.8721 96.9645 49.1839 157.813 48.0186L157.813 47.9992L159.517 47.9992C159.678 47.9985 159.839 47.9961 160 47.9961C160.16 47.9961 160.321 47.9985 160.482 47.9992Z" fill="#034D53"/>
<circle cx="159.999" cy="160" r="89.6002" transform="rotate(-180 159.999 160)" fill="#689394"/>
</svg>
